<svg version="1.1" xmlns="http://www.w3.org/2000/svg" xmlns:xlink="http://www.w3.org/1999/xlink" width="78.76641" height="78.76641" viewBox="0,0,78.76641,78.76641"><defs><radialGradient cx="240" cy="180" r="39.3832" gradientUnits="userSpaceOnUse" id="color-1"><stop offset="0" stop-color="#50b5ce"/><stop offset="1" stop-color="#50b5ce" stop-opacity="0"/></radialGradient><radialGradient cx="239.68743" cy="180" r="27.50573" gradientUnits="userSpaceOnUse" id="color-2"><stop offset="0" stop-color="#ffffff"/><stop offset="1" stop-color="#ffffff" stop-opacity="0"/></radialGradient><radialGradient cx="239.68743" cy="180" r="19.35588" gradientUnits="userSpaceOnUse" id="color-3"><stop offset="0" stop-color="#ffffff"/><stop offset="1" stop-color="#ffffff" stop-opacity="0"/></radialGradient></defs><g transform="translate(-200.6168,-140.6168)"><g data-paper-data="{&quot;isPaintingLayer&quot;:true}" fill-rule="nonzero" stroke="none" stroke-width="0" stroke-linecap="butt" stroke-linejoin="miter" stroke-miterlimit="10" stroke-dasharray="" stroke-dashoffset="0" style="mix-blend-mode: normal"><path d="M200.6168,180c0,-21.75074 17.63246,-39.3832 39.3832,-39.3832c21.75074,0 39.3832,17.63246 39.3832,39.3832c0,21.75074 -17.63246,39.3832 -39.3832,39.3832c-21.75074,0 -39.3832,-17.63246 -39.3832,-39.3832z" fill="url(#color-1)"/><path d="M212.1817,180c0,-15.191 12.31473,-27.50573 27.50573,-27.50573c15.191,0 27.50573,12.31473 27.50573,27.50573c0,15.191 -12.31473,27.50573 -27.50573,27.50573c-15.191,0 -27.50573,-12.31473 -27.50573,-27.50573z" fill="url(#color-2)"/><path d="M220.33155,180c0,-10.68996 8.66592,-19.35588 19.35588,-19.35588c10.68996,0 19.35588,8.66592 19.35588,19.35588c0,10.68996 -8.66592,19.35588 -19.35588,19.35588c-10.68996,0 -19.35588,-8.66592 -19.35588,-19.35588z" fill="url(#color-3)"/></g></g></svg>