<svg version="1.1" xmlns="http://www.w3.org/2000/svg" xmlns:xlink="http://www.w3.org/1999/xlink" width="64.78007" height="64.78007" viewBox="0,0,64.78007,64.78007"><defs><radialGradient cx="240" cy="180" r="32.39004" gradientUnits="userSpaceOnUse" id="color-1"><stop offset="0" stop-color="#ff1900"/><stop offset="1" stop-color="#ff1900" stop-opacity="0"/></radialGradient><radialGradient cx="240" cy="180" r="10.57081" gradientUnits="userSpaceOnUse" id="color-2"><stop offset="0" stop-color="#ffffff"/><stop offset="1" stop-color="#ffffff" stop-opacity="0"/></radialGradient><radialGradient cx="240" cy="180" r="6.77616" gradientUnits="userSpaceOnUse" id="color-3"><stop offset="0" stop-color="#ffffff"/><stop offset="1" stop-color="#ffffff" stop-opacity="0"/></radialGradient><radialGradient cx="240" cy="180" r="14.90755" gradientUnits="userSpaceOnUse" id="color-4"><stop offset="0" stop-color="#ffffff"/><stop offset="1" stop-color="#ffffff" stop-opacity="0"/></radialGradient></defs><g transform="translate(-207.60996,-147.60996)"><g data-paper-data="{&quot;isPaintingLayer&quot;:true}" fill-rule="nonzero" stroke="none" stroke-width="0" stroke-linecap="butt" stroke-linejoin="miter" stroke-miterlimit="10" stroke-dasharray="" stroke-dashoffset="0" style="mix-blend-mode: normal"><path d="M207.60996,180c0,-17.88852 14.50151,-32.39004 32.39004,-32.39004c17.88852,0 32.39004,14.50151 32.39004,32.39004c0,17.88852 -14.50151,32.39004 -32.39004,32.39004c-17.88852,0 -32.39004,-14.50151 -32.39004,-32.39004z" fill="url(#color-1)"/><path d="M229.42919,180c0,-5.8381 4.73271,-10.57081 10.57081,-10.57081c5.8381,0 10.57081,4.73271 10.57081,10.57081c0,5.8381 -4.73271,10.57081 -10.57081,10.57081c-5.8381,0 -10.57081,-4.73271 -10.57081,-10.57081z" fill="url(#color-2)"/><path d="M233.22384,180c0,-3.74237 3.03379,-6.77616 6.77616,-6.77616c3.74237,0 6.77616,3.03379 6.77616,6.77616c0,3.74237 -3.03379,6.77616 -6.77616,6.77616c-3.74237,0 -6.77616,-3.03379 -6.77616,-6.77616z" fill="url(#color-3)"/><path d="M225.09245,180c0,-8.23321 6.67434,-14.90755 14.90755,-14.90755c8.23321,0 14.90755,6.67434 14.90755,14.90755c0,8.23321 -6.67434,14.90755 -14.90755,14.90755c-8.23321,0 -14.90755,-6.67434 -14.90755,-14.90755z" fill="url(#color-4)"/></g></g></svg>