<svg version="1.1" xmlns="http://www.w3.org/2000/svg" xmlns:xlink="http://www.w3.org/1999/xlink" width="16.98723" height="44.78864" viewBox="0,0,16.98723,44.78864"><defs><radialGradient cx="240" cy="180" r="0" gradientUnits="userSpaceOnUse" id="color-1"><stop offset="0" stop-color="#ff1900"/><stop offset="1" stop-color="#ff1900" stop-opacity="0"/></radialGradient><linearGradient x1="240" y1="180" x2="240" y2="180" gradientUnits="userSpaceOnUse" id="color-2"><stop offset="0" stop-color="#ff1900"/><stop offset="1" stop-color="#ff1900" stop-opacity="0"/></linearGradient><radialGradient cx="240" cy="180" r="0" gradientUnits="userSpaceOnUse" id="color-3"><stop offset="0" stop-color="#ff1900"/><stop offset="1" stop-color="#ff1900" stop-opacity="0"/></radialGradient><radialGradient cx="240" cy="180" r="0" gradientUnits="userSpaceOnUse" id="color-4"><stop offset="0" stop-color="#ff1900"/><stop offset="1" stop-color="#ff1900" stop-opacity="0"/></radialGradient><linearGradient x1="240" y1="180" x2="240" y2="180" gradientUnits="userSpaceOnUse" id="color-5"><stop offset="0" stop-color="#ff1900"/><stop offset="1" stop-color="#ff1900" stop-opacity="0"/></linearGradient><radialGradient cx="239.99999" cy="179.99999" r="22.39431" gradientUnits="userSpaceOnUse" id="color-6"><stop offset="0" stop-color="#ff7d7d"/><stop offset="1" stop-color="#ff1900"/></radialGradient><radialGradient cx="239.99999" cy="182.83295" r="12.91858" gradientUnits="userSpaceOnUse" id="color-7"><stop offset="0" stop-color="#ffffff"/><stop offset="1" stop-color="#ff5252"/></radialGradient></defs><g transform="translate(-231.50638,-157.60568)"><g data-paper-data="{&quot;isPaintingLayer&quot;:true}" fill-rule="nonzero" stroke="none" stroke-width="0" stroke-linecap="butt" stroke-linejoin="miter" stroke-miterlimit="10" stroke-dasharray="" stroke-dashoffset="0" style="mix-blend-mode: normal"><path d="" data-paper-data="{&quot;index&quot;:null}" fill="url(#color-1)"/><path d="" data-paper-data="{&quot;index&quot;:null}" fill="url(#color-2)"/><path d="" data-paper-data="{&quot;index&quot;:null}" fill="url(#color-3)"/><path d="" data-paper-data="{&quot;index&quot;:null}" fill="url(#color-4)"/><path d="" data-paper-data="{&quot;index&quot;:null}" fill="url(#color-5)"/><path d="M247.40893,197.07178c-1.73253,3.39756 -4.22255,5.26101 -7.03669,5.32042c-2.21325,0.04672 -4.62699,-0.64978 -7.03036,-5.12504c-5.45924,-10.1655 2.61222,-39.74782 6.64277,-39.6613c6.66382,0.14306 10.51943,33.39625 7.42428,39.46591z" data-paper-data="{&quot;index&quot;:null}" fill="url(#color-6)"/><path d="M243.59528,193.16871c-0.84073,1.64871 -2.04905,2.55298 -3.41465,2.58179c-1.07402,0.02268 -2.2453,-0.31532 -3.41159,-2.48699c-2.64918,-4.93294 1.26762,-23.39107 3.22351,-23.34906c3.23372,0.06942 5.10468,20.30886 3.60273,23.25426z" data-paper-data="{&quot;index&quot;:null}" fill="#ffffff"/><path d="M243.59528,193.16871c-0.84073,1.64871 -2.04905,2.55298 -3.41465,2.58179c-1.07402,0.02268 -2.2453,-0.31532 -3.41159,-2.48699c-2.64918,-4.93294 1.26762,-23.39107 3.22351,-23.34906c3.23372,0.06942 5.10468,20.30886 3.60273,23.25426z" data-paper-data="{&quot;index&quot;:null}" fill="url(#color-7)"/></g></g></svg>